<svg xmlns="http://www.w3.org/2000/svg" xmlns:xlink="http://www.w3.org/1999/xlink" width="151.927" height="170.341" viewBox="0 0 151.927 170.341">
  <defs>
    <clipPath id="clip-path">
      <rect id="Rectangle_185" data-name="Rectangle 185" width="151.927" height="170.341" fill="none"/>
    </clipPath>
    <clipPath id="clip-path-3">
      <rect id="Rectangle_181" data-name="Rectangle 181" width="14.629" height="14.629" fill="none"/>
    </clipPath>
    <clipPath id="clip-path-4">
      <rect id="Rectangle_182" data-name="Rectangle 182" width="15.223" height="32.557" fill="none"/>
    </clipPath>
    <clipPath id="clip-path-5">
      <rect id="Rectangle_183" data-name="Rectangle 183" width="15.083" height="46.753" fill="none"/>
    </clipPath>
  </defs>
  <g id="Group_11435" data-name="Group 11435" opacity="0.25">
    <g id="Group_11434" data-name="Group 11434" clip-path="url(#clip-path)">
      <g id="Group_11433" data-name="Group 11433">
        <g id="Group_11432" data-name="Group 11432" clip-path="url(#clip-path)">
          <path id="Path_4000" data-name="Path 4000" d="M149.258,135.877H2.669a2.669,2.669,0,0,0,0,5.339H149.258a2.669,2.669,0,0,0,0-5.339" transform="translate(0 18.733)" fill="#e2b548"/>
          <path id="Path_4001" data-name="Path 4001" d="M113.055,73.9v-.014L90.9.559,90.733,0H47.273l.17.559L49.51,7.4l4.983,16.51,1.245,4.124,6.251,20.685,1.258,4.137,3.869,12.8,2.056,6.827,25.914,85.746H99.21l-3.229-10.71h35.2l3.241,10.71h4.122ZM52.654,4.125h35.2l.98,3.261,4.994,16.523h-35.2Zm7.22,23.908h35.2l6.251,20.685h-35.2ZM71.24,65.646l-2.055-6.815-1.814-5.976h35.2l5.9,19.492c-.931-.013-2.068-.013-3.458-.013-3.7-.026-8.622-.013-13.532.013-7.57.025-15.115.076-18.187.1Zm3.29,10.914c13.1-.09,30.472-.165,35.189-.064L115.8,96.611H80.588Zm7.315,24.174h35.2l6.058,20.038H87.891ZM94.723,143.4l-5.587-18.5h35.212l5.587,18.5Z" transform="translate(6.517)" fill="#aeaeae"/>
          <path id="Path_4002" data-name="Path 4002" d="M53.362,0l-.168.556L31.053,73.869c-.013.013-.013.013-.013.025L5.562,158.232H9.686l3.241-10.71h35.2L44.9,158.232h4.122l25.9-85.746,2.067-6.84,3.87-12.792,1.245-4.137,6.251-20.685L89.6,23.908,94.584,7.385,96.652.557,96.821,0ZM49.372,143.4h-35.2l5.587-18.5h35.2Zm6.844-22.627H21l6.058-20.038h35.2Zm7.291-24.162h-35.2L34.377,76.5c4.728-.1,22.1-.025,35.189.064ZM74.934,58.831l-2.067,6.827-2.056,6.789c-3.071-.025-10.616-.075-18.187-.1-4.921-.025-9.843-.038-13.53-.013-1.392,0-2.527,0-3.459.013l5.89-19.492H76.737Zm3.047-10.115H42.769l6.251-20.685H84.234Zm7.5-24.809H50.267L55.261,7.4l.991-3.276h35.2Z" transform="translate(0.767 0)" fill="#e8e8e8"/>
          <path id="Path_4003" data-name="Path 4003" d="M125.541,144.842H67.385a2.765,2.765,0,1,0,0,5.53h35.784a2.755,2.755,0,0,0,2.459-1.526h19.914a2,2,0,1,0,0-4" transform="translate(8.909 19.969)" fill="#e2b548"/>
          <path id="Path_4004" data-name="Path 4004" d="M119.594,117.508v31.6a.964.964,0,0,1-.962.96H90.087a.962.962,0,0,1-.95-.96v-31.6Z" transform="translate(12.289 16.201)" fill="#e8e8e8"/>
          <path id="Path_4005" data-name="Path 4005" d="M118.929,119.271h-1.187a13.448,13.448,0,0,0-26.9,0H89.658a14.635,14.635,0,0,1,29.271,0" transform="translate(12.361 14.427)" fill="#e8e8e8"/>
          <path id="Path_4006" data-name="Path 4006" d="M119.594,117.508v6.134c-.938.249-2.16-.629-3.275-.819a2.587,2.587,0,0,0-2.527,1.115c-.522.843-.522,1.994-1.305,2.61-.831.653-2.077.345-3.013-.166a6.966,6.966,0,0,0-2.9-1.245,3,3,0,0,0-2.218.914,3.805,3.805,0,0,0-.748.936,10.034,10.034,0,0,0-.973,3.441c-.155.89-.428,1.911-1.282,2.254a2.359,2.359,0,0,1-1.566-.035,5.759,5.759,0,0,1-3.8-3.761c-.545-1.816-.368-4.224-2.123-5.078a10.648,10.648,0,0,0-2.54-.439,3.687,3.687,0,0,1-2.195-1.316v-4.545Z" transform="translate(12.289 16.201)" fill="#faa436"/>
          <g id="Group_11425" data-name="Group 11425" transform="translate(102.019 119.068)" opacity="0.2" style="mix-blend-mode: multiply;isolation: isolate">
            <g id="Group_11424" data-name="Group 11424">
              <g id="Group_11423" data-name="Group 11423" clip-path="url(#clip-path-3)">
                <path id="Path_4007" data-name="Path 4007" d="M104.288,104.641v1.187a13.454,13.454,0,0,0-13.443,13.443H89.658a14.644,14.644,0,0,1,14.63-14.63" transform="translate(-89.658 -104.641)" fill="#444"/>
              </g>
            </g>
          </g>
          <g id="Group_11428" data-name="Group 11428" transform="translate(101.426 133.709)" opacity="0.2" style="mix-blend-mode: multiply;isolation: isolate">
            <g id="Group_11427" data-name="Group 11427">
              <g id="Group_11426" data-name="Group 11426" clip-path="url(#clip-path-4)">
                <path id="Path_4008" data-name="Path 4008" d="M89.137,117.508h15.222v32.557H90.086a.961.961,0,0,1-.949-.96Z" transform="translate(-89.137 -117.509)" fill="#444"/>
              </g>
            </g>
          </g>
          <path id="Path_4009" data-name="Path 4009" d="M99.674,119.425v31.318a.946.946,0,0,1-.952.941H70.437a.943.943,0,0,1-.94-.941V119.425Z" transform="translate(9.581 16.465)" fill="#e8e8e8"/>
          <path id="Path_4010" data-name="Path 4010" d="M99.015,121.181H97.84a13.326,13.326,0,0,0-26.651,0H70.013a14.5,14.5,0,0,1,29,0" transform="translate(9.653 14.709)" fill="#e8e8e8"/>
          <path id="Path_4011" data-name="Path 4011" d="M99.674,119.425V125.5c-.928.247-2.139-.622-3.245-.811a2.561,2.561,0,0,0-2.5,1.106c-.518.834-.518,1.974-1.294,2.586a2.816,2.816,0,0,1-2.986-.165,6.9,6.9,0,0,0-2.869-1.235,2.972,2.972,0,0,0-2.2.906,3.793,3.793,0,0,0-.741.929,10,10,0,0,0-.964,3.409c-.152.882-.423,1.892-1.27,2.234a2.344,2.344,0,0,1-1.551-.035,5.7,5.7,0,0,1-3.762-3.727c-.542-1.8-.365-4.185-2.105-5.032a10.515,10.515,0,0,0-2.516-.435,3.65,3.65,0,0,1-2.174-1.305v-4.5Z" transform="translate(9.581 16.465)" fill="#ffcd26"/>
          <g id="Group_11431" data-name="Group 11431" transform="translate(79.078 121.395)" opacity="0.2" style="mix-blend-mode: multiply;isolation: isolate">
            <g id="Group_11430" data-name="Group 11430">
              <g id="Group_11429" data-name="Group 11429" clip-path="url(#clip-path-5)">
                <path id="Path_4012" data-name="Path 4012" d="M71.261,121.181h13.32V153.44H70.438a.944.944,0,0,1-.941-.941V121.181h.588a14.51,14.51,0,0,1,14.5-14.5v1.175a13.331,13.331,0,0,0-13.32,13.32" transform="translate(-69.497 -106.686)" fill="#444"/>
              </g>
            </g>
          </g>
        </g>
      </g>
    </g>
  </g>
</svg>
