<svg xmlns="http://www.w3.org/2000/svg" xmlns:xlink="http://www.w3.org/1999/xlink" width="81.516" height="147.024" viewBox="0 0 81.516 147.024">
  <defs>
    <clipPath id="clip-path">
      <rect id="Rectangle_191" data-name="Rectangle 191" width="81.516" height="147.024" fill="none"/>
    </clipPath>
    <clipPath id="clip-path-3">
      <rect id="Rectangle_187" data-name="Rectangle 187" width="20.809" height="145.257" fill="none"/>
    </clipPath>
    <clipPath id="clip-path-4">
      <rect id="Rectangle_189" data-name="Rectangle 189" width="16.263" height="34.508" fill="none"/>
    </clipPath>
  </defs>
  <g id="Group_11445" data-name="Group 11445" opacity="0.25">
    <g id="Group_11444" data-name="Group 11444" clip-path="url(#clip-path)">
      <g id="Group_11443" data-name="Group 11443">
        <g id="Group_11442" data-name="Group 11442" clip-path="url(#clip-path)">
          <path id="Path_4013" data-name="Path 4013" d="M79.086,164.929H2.43a2.429,2.429,0,1,0,0,4.859H79.086a2.429,2.429,0,0,0,0-4.859" transform="translate(0 -22.764)" fill="#e2b548"/>
          <rect id="Rectangle_186" data-name="Rectangle 186" width="3.757" height="101.313" transform="translate(24.835 40.066)" fill="#e8e8e8"/>
          <path id="Path_4014" data-name="Path 4014" d="M50.539,21.842A21.842,21.842,0,1,1,28.7,0,21.842,21.842,0,0,1,50.539,21.842" transform="translate(-0.946)" fill="#ffcd26"/>
          <path id="Path_4015" data-name="Path 4015" d="M47.963,22.333A18.774,18.774,0,1,1,29.189,3.559,18.774,18.774,0,0,1,47.963,22.333" transform="translate(-1.437 -0.491)" fill="#ffcd26"/>
          <path id="Path_4016" data-name="Path 4016" d="M29.1,41.565a19.319,19.319,0,1,1,19.32-19.319A19.341,19.341,0,0,1,29.1,41.565m0-37.549a18.23,18.23,0,1,0,18.23,18.23A18.251,18.251,0,0,0,29.1,4.017" transform="translate(-1.35 -0.404)" fill="#444"/>
          <path id="Path_4017" data-name="Path 4017" d="M43.327,19.351,41.781,17.8a.84.84,0,0,1-1.189,0l-.207-.206.39-.391a.288.288,0,0,0,0-.408l-3.961-3.961s-2.984-2.225-5.7-.634l.768.675a5.54,5.54,0,0,1,2.631.548.907.907,0,0,1,.251,1.459l-.394.393a.97.97,0,0,0,0,1.37l.382.381L26.682,25.1l-.14-.141a.4.4,0,0,0-.565,0l-7.24,7.24a1.133,1.133,0,0,0,0,1.6l1.361,1.36a1.133,1.133,0,0,0,1.6,0l7.24-7.24a.4.4,0,0,0,0-.564L28.8,27.22l8.073-8.073.779.779a.288.288,0,0,0,.407,0l.391-.391.207.207a.841.841,0,0,1,0,1.19L40.2,22.476a.478.478,0,0,0,.675,0l2.451-2.451a.478.478,0,0,0,0-.675" transform="translate(-2.54 -1.605)" fill="#444"/>
          <path id="Path_4018" data-name="Path 4018" d="M30.189,20.427l-2.254,2.254-3.671-3.667a4.087,4.087,0,0,1-4.381-.929,4.483,4.483,0,0,1-.654-4.668l2.653,3.152a.475.475,0,0,0,.695.036l1.536-1.536a.476.476,0,0,0-.036-.695l-3.152-2.653a4.481,4.481,0,0,1,4.668.655,4.086,4.086,0,0,1,.929,4.381Z" transform="translate(-2.604 -1.568)" fill="#444"/>
          <path id="Path_4019" data-name="Path 4019" d="M38.742,32.77a.474.474,0,0,0,.036.694l3.151,2.653a4.478,4.478,0,0,1-4.668-.654,4.086,4.086,0,0,1-.93-4.384l-3.1-3.1,2.254-2.255,3.1,3.1a4.086,4.086,0,0,1,4.384.93,4.478,4.478,0,0,1,.654,4.668L40.972,31.27a.474.474,0,0,0-.694-.036Z" transform="translate(-4.586 -3.55)" fill="#444"/>
          <path id="Path_4020" data-name="Path 4020" d="M34.7,164.016H25.012a2.229,2.229,0,0,0-2.229,2.229v1.671H36.932v-1.671a2.229,2.229,0,0,0-2.229-2.229" transform="translate(-3.145 -22.638)" fill="#aeaeae"/>
          <g id="Group_11438" data-name="Group 11438" transform="translate(5.908 0.022)" opacity="0.2" style="mix-blend-mode: multiply;isolation: isolate">
            <g id="Group_11437" data-name="Group 11437">
              <g id="Group_11436" data-name="Group 11436" clip-path="url(#clip-path-3)">
                <path id="Path_4021" data-name="Path 4021" d="M27.663.026V145.282H20.581v-1.676a2.232,2.232,0,0,1,2.237-2.228h2.963V43.492A21.843,21.843,0,0,1,27.663.026" transform="translate(-6.854 -0.026)" fill="#444"/>
              </g>
            </g>
          </g>
          <path id="Path_4022" data-name="Path 4022" d="M81.674,156.7H57.462l2.818-7.866,2.23-6.25,2.818-7.874,1.808-5.04a2.614,2.614,0,0,1,4.866,0l1.8,5.04,2.819,7.874,2.238,6.25Z" transform="translate(-7.931 -17.669)" fill="#faa436"/>
          <rect id="Rectangle_188" data-name="Rectangle 188" width="32.535" height="5.819" transform="translate(45.37 139.032)" fill="#faa436"/>
          <path id="Path_4023" data-name="Path 4023" d="M81.675,160.035H57.463l2.818-7.866H78.856Z" transform="translate(-7.931 -21.003)" fill="#fff"/>
          <path id="Path_4024" data-name="Path 4024" d="M77.427,143.657H63.319l2.818-7.875h8.472Z" transform="translate(-8.739 -18.741)" fill="#fff"/>
          <g id="Group_11441" data-name="Group 11441" transform="translate(45.37 110.344)" opacity="0.2" style="mix-blend-mode: multiply;isolation: isolate">
            <g id="Group_11440" data-name="Group 11440">
              <g id="Group_11439" data-name="Group 11439" clip-path="url(#clip-path-4)">
                <path id="Path_4025" data-name="Path 4025" d="M68.9,128.012V162.52H52.635V156.7H56.8l2.819-7.866,2.229-6.249,2.819-7.875,1.807-5.04a2.511,2.511,0,0,1,2.429-1.658" transform="translate(-52.635 -128.012)" fill="#444"/>
              </g>
            </g>
          </g>
        </g>
      </g>
    </g>
  </g>
</svg>
